<svg xmlns="http://www.w3.org/2000/svg" viewBox="0 0 256 256" fill="none">
  <g stroke="#50768F" stroke-width="2.5">
    <line x1="128" y1="128" x2="216" y2="120"/><line x1="128" y1="128" x2="196" y2="66"/><line x1="128" y1="128" x2="150" y2="42"/>
    <line x1="128" y1="128" x2="88" y2="46"/><line x1="128" y1="128" x2="46" y2="88"/><line x1="128" y1="128" x2="38" y2="140"/>
    <line x1="128" y1="128" x2="62" y2="198"/><line x1="128" y1="128" x2="116" y2="220"/><line x1="128" y1="128" x2="174" y2="206"/>
    <line x1="128" y1="128" x2="212" y2="176"/><line x1="128" y1="128" x2="222" y2="146"/>
  </g>
  <g fill="#3A5468" stroke="#7896AF" stroke-width="2.5">
    <circle cx="216" cy="120" r="7"/><circle cx="196" cy="66" r="7"/><circle cx="150" cy="42" r="7"/><circle cx="88" cy="46" r="7"/>
    <circle cx="46" cy="88" r="7"/><circle cx="38" cy="140" r="7"/><circle cx="62" cy="198" r="7"/><circle cx="116" cy="220" r="7"/>
    <circle cx="174" cy="206" r="7"/><circle cx="212" cy="176" r="7"/><circle cx="222" cy="146" r="7"/>
  </g>
  <circle cx="128" cy="128" r="15" fill="#E8A33D" stroke="#F2C584" stroke-width="3"/>
</svg>
